<?xml version="1.0" encoding="UTF-8"?>
<svg version="1.1" viewBox="0 0 1308 1308" width="327" height="327" xmlns="http://www.w3.org/2000/svg">
<path transform="translate(623,284)" d="m0 0h66l21 1 13 3 10 3 6 6 1 3v11l-4 16-4 10 12-6 5-3 8-6 11-7 5-3 6 1 4 6v11l-6 5-5 1 1 3 25 3 38 5 18 2 6 2 12 2 9 4 4 5 2 6 1 27-1 46-1 6 5 4 5 2 11 9 5 8 1 7-2 10-7 9-6 5-8 5-13 3-1 2v11l1 12 8 20 12 17 7 10 8 16 3 16 1 45v359l-1 22-2 10-4 16-4 10 11-1 5 1 52 2 39 3 28 4 16 5 8 5 3 3 1 8-8 4-18 6-35 8-37 6-73 10-24 2-16 2-48 4-50 3-13 1-100 2h-9l-2 2h-5l-2-2-8-1-1 3-5 1-1-3-8 1-9 1-5-2-28 1h-20l-36-1h-13l-26-1-8-2-1 1h-24l-4-2v2l-3 1-16-1-16-2-33-3-23-3-31-5-27-9-10-6-4-4-1-9 6-10 9-7 13-6 14-6 18-4 22-3 4-1 21-2 13-2h25l-4-7-4-18-2-100 1-80v-245l2-10 2-5 2-8 6-12 12-15 6-8 6-5 6-9 8-14 6-18v-6l-17-4-16-7-8-11-2-3v-15l3-7 4-6 6-5 13-4 5-4 1-16v-24l2-4-2-8 2-4-1-6 2-3-1-9 3-8 7-8 2-1 32-2 9-2 31-3 23-2-6-8-1-3-5-2-4-5 1-5 5-8 10 1 13 9 8 6 8 8 4 3h10l2-1-7-10-3-7-1-12-1-5 4-9 5-5 5-2z" fill="#AED1E8"/>
<path transform="translate(623,284)" d="m0 0h66l21 1 13 3 10 3 6 6 1 3v11l-4 16-4 10 12-6 5-3 8-6 11-7 5-3 6 1 4 6v11l-6 5-5 1 1 3 25 3 38 5 18 2 6 2 12 2 9 4 4 5 2 6 1 27-1 46-1 6 5 4 5 2 11 9 5 8 1 7-2 10-7 9-6 5-8 5-13 3-1 2v11l1 12 8 20 12 17 7 10 8 16 3 16 1 45v359l-1 22-2 10-4 16-4 10 11-1 5 1 52 2 39 3 28 4 16 5 8 5 3 3 1 8-8 4-18 6-35 8-37 6-73 10-24 2-16 2-48 4-50 3-13 1-100 2h-9l-2 2h-5l-2-2-8-1-1 3-5 1-1-3-8 1-9 1-5-2-28 1h-20l-36-1h-13l-26-1-8-2-1 1h-24l-4-2v2l-3 1-16-1-16-2-33-3-23-3-31-5-27-9-10-6-4-4-1-9 6-10 9-7 13-6 14-6 18-4 22-3 4-1 21-2 13-2h25l-4-7-4-18-2-100 1-80v-245l2-10 2-5 2-8 6-12 12-15 6-8 6-5 6-9 8-14 6-18v-6l-17-4-16-7-8-11-2-3v-15l3-7 4-6 6-5 13-4 5-4 1-16v-24l2-4-2-8 2-4-1-6 2-3-1-9 3-8 7-8 2-1 32-2 9-2 31-3 23-2-6-8-1-3-5-2-4-5 1-5 5-8 10 1 13 9 8 6 8 8 4 3h10l2-1-7-10-3-7-1-12-1-5 4-9 5-5 5-2zm221 229-1 1-27 2-12 2-4-1-6 2-40 1-10 2-92 1-64-1-1-1h-8l-2 1-5-2h-10l-12-1h-10l-40-4-8-1h-10l-4 2-3 16-9 22-9 11-8 10-9 9-9 12-4 8-2 8-1 9v218l-1 165v25l3 21 4 11 7 14 7 9 7 6 17 10 7 1 8 4 13 1 7 1 1 1 40 2 9-1 6 1h17l6-1 7 2h6l1-1h6l5 1 12-1 9 1 1-1h14l4 1 4-1 19-1 5 1h12l1-1h7l6 3 10-3 8 1h12l5 1v-2l7 1 44-1 26-1 15-2 15-3 19-8 9-7 8-8 8-16 6-15 3-21-2-7 1-9v-20l-1-3 1-5v-3l1-4-1-7v-58l-1-4 1-16-1-7 1-5v-4l-1-7 1-1v-7l1-6v-7l-2-1 1-9 1-5-2-7 1-14 1-8-1-9h-2l3-6v-48l-1-5v-25-3l1-7-2-8 1-24-1-1v-7l1-4-2-4 2-2v-7l-2-1 1-4v-11l1-3v-11l-6-15-7-10-5-8-7-10-8-14-5-10-3-22 1-4-4-8z" fill="#504337"/>
<path transform="translate(580,637)" d="m0 0 13 1 13 2 9 4 12 6 10 9 5 5 7 8 7 10 3 2 2-4 8-11 11-12 8-6 17-9 19-5h25l18 5 17 9 13 12 7 7 8 14 8 22 3 11 2 18-1 26-4 25-7 22-6 14-12 21-10 16-11 14-12 14-9 10-15 14-11 10-11 9-8 8-8 7-13 12-8 7-10 9-8 6-5 1-9-7-7-6-5-6-5-5-12-11-9-7-13-13-8-7-12-13-7-8-12-11-8-10-11-12-4-5v-2l-4-2-12-19-8-12-3-5-2-6-5-8-4-10-2-13-3-8-2-10v-32l1-8-1-2 2-5 2-11 9-21 6-10 8-9 7-8 15-10 11-5 16-4z" fill="#EF8F78"/>
<path transform="translate(844,513)" d="m0 0h7l4 8-1 7 3 19 10 19 9 14 4 5 6 10 5 8 4 11v11l-1 7v7l-1 4 2 1v7l-2 4 2 2-1 4v7l1 1-1 24 2 8-1 7v3 28l1 4v46l-3 6h2l1 14-1 7-1 12 2 5-1 11-1 3 2 1v11l-1 4v5 4l-1 7 1 5-1 4 1 4v8l-1 8 1 4v63l1 3-2 4 1 5-1 4 1 5v20l-1 5 2 9-3 19-8 20-6 11-11 11-10 6-15 6-20 4-10 1-61 2h-9l-7-1v2l-5-1h-17l-4-1-9 3-6-3h-7l-4 1h-12l-3-1-18 1-7 1-1-1h-14l-4 1-9-1-12 1-2-1h-6l-1 1-12-1-5-1-2 1h-20l-6-1-11 1-35-2-3-2h-10l-11-2-5-3-7-1-20-12-5-5-7-10-6-12 1-2 4 8 5 4 11 1 1 4h7l4 5v3l5 2v-7l-5-1-3-2v-3l6-1 13 3 8-1 4 1 1-1 14 1 25 2 1 2 5-1 7-1 11 1 9-1 1 3h5l3 1 26-2 3-1 2 1h14l5-1 7 2 12-1 24-1 20-1 25-1v6l4-1 2-5 14-2 3-1 2 2 6-1 2-1h7l1 3h8l1-3 3-1 1-2h2l1 2 8-1 5-2 1 3h4l3-3h15l-1-4h-3l-1 2-4-2-15-1-6-3-2-4 8-4 6-4 1-1h16l4 2 7 1 8-3 3-2 3-16 2-6 2-4 2-1 3 2v2l-2 1-3 9h3v2h4l1-3h3l-1-8-2-1-1 2-1-2 2-3h6l1-5 2-3h3v-4h-8l-1 3 1 4-6 1-3-2 2-6 2-1 3-12 5-13 5-18 3-13 4-11 3-9 4-10 2-6h2l2-12h-2v-2h2l1-10h2l-1-6 2-1 1 5h3l-2 9-2 1v3l1-2 4-1 1-2v-9l-1-3 2-1v-21h-3l-5-7-1-3 2-4-5-1-3-5v-2h3l2-7 2-3h2v-2l3-1-2-9h-2l-1-3 1-2-2-3-2-16v-7h3l-5-13v-10l-2-6-3-32-1-34 3-2-1-3-2-1-1-10-2-4 2-5 1-2 8-1v-9h-4l-1 4-4-2v-3l5-2 6-5 1-2h2l-1 7 1 2 2-6-2-5 1-4h2l-3-9-6-5-4-6h-6l-3 4h-2v-9l3-3 8-1 3-7h2l-1-3-6 3-1 3-4 2h-4v-6l-4 1-1 2h-2v-10l-1-1-1-7-2-3 4-2h8l-1-2-9-1v-2l-4-2-3-3-5-15-3-4v-6h-2l-5-9-4-11-1-4 7-1v-4h-11l-9 1-1-2 10-2 27-2z" fill="#68ABD3"/>
<path transform="translate(580,637)" d="m0 0 13 1 13 2 9 4 12 6 10 9 5 5 7 8 7 10 3 2 2-4 8-11 11-12 8-6 17-9 19-5h25l18 5 17 9 13 12 7 7 8 14 8 22 3 11 2 18-1 26-4 25-7 22-6 14-12 21-10 16-11 14-12 14-9 10-15 14-11 10-11 9-8 8-8 7-13 12-8 7-10 9-8 6-5 1-9-7-7-6-5-6-5-5-12-11-9-7-13-13-8-7-12-13-7-8-12-11-8-10-11-12-4-5v-2l-4-2-12-19-8-12-3-5-2-6-5-8-4-10-2-13-3-8-2-10v-32l1-8-1-2 2-5 2-11 9-21 6-10 8-9 7-8 15-10 11-5 16-4zm149 18-18 5-12 6-12 11-7 9-4 9-3 9-2 5-1 9-5 6-3 2-5-1-7-6-3-11-2-4-1-7-5-1-11 8-19 13-23 16-13 8-10 7-10 6-10 2 4-8 9-7 15-10 22-15 11-8 13-8 18-12-1-5-6-7-8-7-9-6-9-4-7-2-4-1h-16l-14 3-16 7-9 7-8 8-9 13-4 9-4 14-1 18-2 5 1 10-1 8 2 3 2 13 8 24 11 21 10 16 8 11 9 11 7 7 1 2h2v2h2v2h2l2 4 36 36h2v2l8 7 10 10 11 9 17 16 5-3 15-13 10-9 11-9 11-11 8-7 8-9 9-7 15-16 7-8 8-9 11-15 5-8 3-7 8-16 4-16-2-2-18 13-12 10-18 13-14 9-10 8-11 8-11 9-12 8-3 1-1-7 5-5 11-9 8-6 13-9 20-15 30-22 10-7 9-6 7-3 3-4 2-14 2-9v-13l-1-11-4-21-8-18-8-12-8-9-10-7-15-5-5-1z" fill="#4F4135"/>
<path transform="translate(620,359)" d="m0 0h71l17 1h31l1 1h22l43 3 13 2 16 1 27 4 4 4v25l-1 2-12 1-5 1h-19l-13 1-50 1-12 1h-11l-2 1h-29l-12 1-7-1h-44l-2-1h-7l-9-1h-25l-38-1-17-1-7-1-31-1-21-1h-15l-5-2v-15l1-12 15-2 1-1 16-2 15-1 1-1 19-1 5-1 24-2 19-1h18z" fill="#EFBB78"/>
<path transform="translate(452,461)" d="m0 0 4 1 2 1 23 1 10 1 22 2h21l22 1h22l3 1h27 4 31l4 1h69l3-1h8l4-1 9 1 7-1 35-1 9-2 8 2v-2l30-2 3-1h15l5-1h19l12 5 5 3 4 6v6l-6 7-9 4-28 2h-5l-1 1-32 3h-9l-10 2h-12l-11 1-60 1-2 1-27 1-12-1-7 1-9-1-10-1-2 1-20-1-3 1-2-1-57-2-4-1-35-2-21-2-29-4-20-4-10-5-3-5v-6l5-5z" fill="#AACFE6"/>
<path transform="translate(469,418)" d="m0 0 8 1 46 1 22 1h10l4 1 9 1v-2l4 1 19 1 51 1 9 1h20l1 1h11l4-1 4 1 4-1 20 1 2-1h6l4 1 13-2h15l39-1 9-1h8l4-1h25l7-1 17 1 1 9-1 13-3 2-15 2-45 2h-19l-18 2-2 1-6-1-26 1-51 1-27 1h-30l-10 1-13-1-6 1-6-1h-31l-20-1-36-1-20-1-5-2-7-2v-18l2-9z" fill="#A8CDE5"/>
<path transform="translate(555,69)" d="m0 0h12l12 6 8 8 4 8 1 4v25l-3 14-3 11-10 25-5 9-4 3-5 1-2-2-24-7-22-9-13-7-12-11-5-5-4-6-4-13v-9l7-14 5-6 14-7 6-1h11l7 5 5 5 2-8 7-13 10-5z" fill="#C46C4F"/>
<path transform="translate(974,458)" d="m0 0 11 2 10 5 7 7 5 10 2 9 3 1 5-3 4-1h13l10 4 5 4 6 10 2 9v8l-5 9-14 13-10 7-11 7-35 15-8 2h-6l-4-4-12-23-4-9-4-14-3-19v-16l3-11 7-9 8-8 7-3z" fill="#C56C4F"/>
<path transform="translate(335,348)" d="m0 0 8 1 7-1 12 6 9 11 3 7 1 5v9l-2 12-1 18-2 7-2 20-3 12-7 8-7 1-17-1-15-5-14-7-5-2-15-11-6-5-7-12-2-8 1-9 7-14 8-6 15-2 11 1v-7l4-14 9-9z" fill="#C46C4F"/>
<path transform="translate(631,304)" d="m0 0h68l1 3 10-1 7 1 1 5-4 14-6 10-9 1h-68l-7-5-8-11-4-9 1-5 9-2z" fill="#ECB675"/>
<path transform="translate(333,756)" d="m0 0h9l10 4 4 8 3 12v27l-3 11-4 6-7 6-2 1-9-1-8-4-5-4-5-10v-24l5-19 6-9z" fill="#B2D3E9"/>
<path transform="translate(335,588)" d="m0 0h7l7 3 6 7 4 12v21l-4 12-6 7-9 4-7-1-11-10-4-10-2-8v-7l8-23 7-6z" fill="#5495BA"/>
<path transform="translate(966,686)" d="m0 0 9 1 6 4 5 7 4 16v9l-3 13-4 6-6 6-5 1-13-4-6-4-6-14v-9l5-15 6-11 6-5z" fill="#5293B9"/>
<path transform="translate(779,721)" d="m0 0h5l-1 6-1 2h-2v2l-14 11-16 12-14 11-10 7-8 5-10 9-13 9-25 17-11 8-18 11-9 2-4-2 1-4 13-10 18-11 14-10 12-8 11-8 17-12 16-12 11-8 10-8 9-6 9-7z" fill="#3D251D"/>
<path transform="translate(821,252)" d="m0 0 11 1 6 3 5 5 1 3v16l-4 10-7 10-5 4-6 2-8-1-6-3-4-4-2-16 3-16 6-10 3-3z" fill="#5394BA"/>
<path transform="translate(961,868)" d="m0 0 9 1 8 7 4 8 2 9-1 13-5 12-7 7-6 1-9-6-5-6-3-6v-20l5-13 5-5z" fill="#B3D4EA"/>
<path transform="translate(500,251)" d="m0 0h9l8 4 5 6 4 11v14l-3 8-5 3-3 1h-7l-8-4-10-10-5-8-1-3v-12l3-5 9-4z" fill="#5294B9"/>
<path transform="translate(729,700)" d="m0 0h2l-1 4-4 6-18 13-12 8-14 10-33 23-33 22-9 5-3-1-1-7 5-5 23-16 15-10 16-10 20-14 6-4 9-5 14-9z" fill="#3C241C"/>
<path transform="translate(790,781)" d="m0 0 3 1-4 2v3l4-1 2 3-13 10-8 6-18 14-15 10-10 7-16 12-10 8-11 8-6 4h-3l-2-7 5-5 14-12 13-9 10-7 21-16 10-7 15-11 10-7z" fill="#3E261E"/>
<path transform="translate(710,713)" d="m0 0h2v2l2 1-8 6h-3v2l-4 2-5 5-5 3-8 5h-2v2l-11 7-9 6-6 5-8 5h-2v2l-10 5-3 3h-3v2l-20 11h-3l5-5 11-9 8-5 11-7 2-2h3v-2l11-7 4-3h2l1-3 5-2 5-5 4-2 2-2h2l1-2 9-5 9-6 7-2 2-4z" fill="#4F4135"/>
<path transform="translate(425,799)" d="m0 0 2 1v18 1 80l-1 134 3 19 1 7-2-2-3-11-2-17v-42l1-167v-10z" fill="#65A9D1"/>
<path transform="translate(591,1102)" d="m0 0 8 4 5 2 4-2 4 1 5-1 4 1 2-1 2 1v2l8-2h11l2 2 2-2 6-2 2 1v2l8-2h7l1-1h5l1 1h27l4 1h22v3h-17l-4-1-9 3-6-3h-7l-4 1h-12l-3-1-18 1-7 1-1-1h-14l-4 1-9-1-12 1-2-1h-6l-1 1-12-1-5-1-2 1h-20l-6-1-11 1-18-1 2-2h15l1-3 2 1v2l6-1h13l3 1 4-1h15l8 1v2l3-1z" fill="#5092B8"/>
<path transform="translate(737,823)" d="m0 0 6 2-5 4-12 8-7 6-4 5-10 8-11 8-6 4h-3l-2-7 5-5 14-12 13-9 4-3h2v3h2v-2l4-2 5-5 5-1z" fill="#3E261E"/>
<path transform="translate(890,1052)" d="m0 0 1 3-10 22-9 10-8 7-16 7-5 2-20 4-10 1-61 2h-9l-7-1-1 2v-3l4-1h14l3-1 2-2 4 2 2-1h6l1 1h27l9-1h6l8-3 9 1 5-2h3v-2l9-3 4 1 9-4 10-8 6-7 3-9h2v-3l4-3z" fill="#5092B8"/>
<path transform="translate(430,598)" d="m0 0 1 2-3 11-2 31v22l1 1v83h-2v8l2 1-1 3v22l1 7h-1l-1 10h-1v-178l2-13 3-9z" fill="#589BC2"/>
<path transform="translate(705,779)" d="m0 0 3 1-5 6-4 3-4 1-5 5-3 1v2h-3l-1 3-5 2-8 6-11 8-21 12h-2l-1 2h-3l1-4 4-2 3-5 9-4 4-4 7-2 15-11 9-6 6-5 5-2 8-6z" fill="#4F4135"/>
<path transform="translate(863,373)" d="m0 0 2 2v25l-1 2-12 1-5 1h-19l-13 1-50 1-12 1h-11l-2 1h-29l-12 1-7-1h-44l2-2h80l22-2 83-2 9-1 2 1 16-2 1-3z" fill="#C46B4D"/>
<path transform="translate(769,730)" d="m0 0 4 3-5 5-9 7-4 2-10 8-4 1v3l-6 3-9 8-11 7-4 1-2-3h2v-2l16-10 2-3h3l1-4 6-2-1-2 6-2 5-6 6-5 5-1 5-6z" fill="#4F4135"/>
<path transform="translate(779,721)" d="m0 0h5l-1 6-1 2h-2v2l-14 11-16 12-14 11-10 7-8 5h-3l6-5 11-8 4-4 5-1v-3l5-3 9-7 2-2 5-2 8-7h2l-2-4-5 1-2 4h-2l-1 3-7 1 3-3 10-8z" fill="#3C231C"/>
<path transform="translate(707,720)" d="m0 0m-1 1m-3 1h3l-1 3-36 25-16 11-14 10-23 15-9 5-3-1v-2l17-10 6-2v-2l5-3 9-5h2v-2l10-6h2l2-4 10-6 10-7h2v-2l10-6 7-5h2l2-5 3 1z" fill="#3C231C"/>
<path transform="translate(425,799)" d="m0 0 2 1v18l-1 1v79l-1 122h-1l-1-16 1-184v-10z" fill="#5092B8"/>
<path transform="translate(715,776)" d="m0 0m-3 1h3l-2 4-8 7-35 24-11 8-18 11-9 2v-2h3l1-3 5-2 21-12 16-12 5-2 1-2h3v-2l5-4h2l1-3 5-2 8-7 2-2z" fill="#3C231C"/>
<path transform="translate(841,518)" d="m0 0h5l-1 9-2 5-8 11h-2v-2l-4-1-2-5v-6l3-5 9-2z" fill="#B5D5EA"/>
<path transform="translate(720,498)" d="m0 0h66v1l-17 2-60 1-2 1h-21v-1l6-1h11l1-2z" fill="#5DA1C8"/>
<path transform="translate(774,795)" d="m0 0h4l1 6-10 5-5 4h-2v2l-7 5-8 4v-4l-2-2h3l2-4 5-3h7l-2-3 4-2 1-3 5-1z" fill="#4F4035"/>
<path transform="translate(729,700)" d="m0 0h2l-1 4-4 6-18 13-2-1 6-7v-2l-5 3-3 3h-3l-1 2-6 3-2-1 9-7 17-10z" fill="#3C231C"/>
<path transform="translate(532,497)" d="m0 0h25l6 2v-2h7l6 1h26l24 1 9 1 2 1v2l-17-1-3 1-2-1-57-2-4-1-22-1z" fill="#5A9DC4"/>
<path transform="translate(773,803)" d="m0 0 2 1-15 12-17 12-11 7-10 8-5 2 6-7 2-2 9-5 7-5-3-1 2-4 5-5 3 1v3l11-7 3-1v-2l7-5z" fill="#3D251E"/>
<path transform="translate(469,418)" d="m0 0 8 1 46 1v1l-6 1h-42l-1 5-2 9-1 11 2 1-5-1v-18l2-9z" fill="#64A5CB"/>
<path transform="translate(672,1105)" d="m0 0h5l1 1h27l4 1h22v3h-17l-4-1-9 3-6-3h-7l-4 1h-12l-3-1h-9l3-3h8z" fill="#5092B8"/>
<path transform="translate(734,886)" d="m0 0v3l-6 5-7 8-8 7-6 5-6 7-5 5-8 7-8 6-3-1 11-10 11-9 11-11 8-7 8-9z" fill="#3C241D"/>
<path transform="translate(737,823)" d="m0 0 6 2-5 4-12 8-8 6-4 1-2 3v-4l-2-1 6-2 1-4h3l1-2 2 1v-2l4-2 5-5 5-1z" fill="#4F4035"/>
<path transform="translate(425,799)" d="m0 0 2 1v18l-1 1v55l-1 18h-1v-82z" fill="#5092B8"/>
<path transform="translate(779,721)" d="m0 0h5l-1 6-1 2-6 2v-3l-4 2h-3l-1 2h-3l-2 4h-2l-1 3-7 1 3-3 10-8z" fill="#3D241D"/>
<path transform="translate(587,522)" d="m0 0h17l48 1v1l-17 1h-43l-5-1z" fill="#5A9DC4"/>
<path transform="translate(613,913)" d="m0 0 4 2 13 13 11 9 17 16h-3l-9-8-8-7-12-11-8-7-5-5z" fill="#3F2720"/>
<path transform="translate(650,406)" d="m0 0h63l-2 2-12 1-7-1h-44z" fill="#DC7F65"/>
<path transform="translate(848,421)" d="m0 0h16l1 9-1 13-3 2h-11l1-2 7-1 3-2 1-3v-13l-3 1-10-2z" fill="#60A2C9"/>
<path transform="translate(698,851)" d="m0 0 3 1 1 3-6 5-5 4h-7l-1-3 9-5 3-4z" fill="#4E4034"/>
<path transform="translate(745,813)" d="m0 0m-1 1 2 4-6 4-3 1v2l-8 4-3 4h-3v2h-2l1-4 8-7z" fill="#402921"/>
<path transform="translate(459,487)" d="m0 0 32 4 2 1 20 2 1 2h-9l-36-5-10-2z" fill="#5C9FC6"/>
<path transform="translate(587,719)" d="m0 0h2l-1 4-10 6-4 3h-3v2l-3 2h-4l-1 3-7 4-2-1 14-10z" fill="#3D251E"/>
<path transform="translate(601,717)" d="m0 0h4l1 3-20 14-13 8-2-1 3-3h2v-2l8-4 7-5 3-1 4-4h2z" fill="#3D251D"/>
<path transform="translate(534,824)" d="m0 0 4 5 7 10 8 11-4 1-3-4-5-8-5-6-2-4-2-3z" fill="#3D251D"/>
<path transform="translate(775,668)" d="m0 0 4 2 7 6 10 18 1 7-3-3-7-14-9-12z" fill="#3E261E"/>
<path transform="translate(550,744)" d="m0 0h2v3l-4 1-1 4 7-1 8-4h3l-8 6-7 3h-7l1-5z" fill="#3C241D"/>
<path transform="translate(556,855)" d="m0 0 7 6 3 3v2h2v2h2v2h2l2 4-10-4-1-1v-5h-4v-2l-2-1-1-3z" fill="#3E261F"/>
<path transform="translate(872,675)" d="m0 0 4 1v13l-2 3h-3v-16z" fill="#AFD2E9"/>
<path transform="translate(669,746)" d="m0 0m-1 1m-1 1m-1 1m-3 1h3l-1 3-24 16 2-5 10-6h2l2-4z" fill="#3D241D"/>
<path transform="translate(608,661)" d="m0 0 5 1 9 6 7 6 7 9h-3l-5-5v-2l-4-2v-2l-4-2-9-6z" fill="#3E261E"/>
<path transform="translate(795,793)" d="m0 0h1l-1 9v3h-2l-1 6-8 16-3 3 1-6 9-17 3-13z" fill="#3F2820"/>
<path transform="translate(452,461)" d="m0 0 4 1 2 1 23 1-4 2-15-1-15 1-2-2z" fill="#65A4C9"/>
<path transform="translate(701,1106)" d="m0 0 8 1h22v3h-17l-4-1-9 3 2-5z" fill="#5092B8"/>
<path transform="translate(626,693)" d="m0 0 2 1-12 9-11 6-9 7-3-1 11-8 13-8z" fill="#3D251E"/>
<path transform="translate(823,1056)" d="m0 0h4l1 4-6 11h-4l2-5 3-5-2-1z" fill="#AFD2E9"/>
<path transform="translate(848,541)" d="m0 0 5 1v7l-5 1-4-3 1-3h2z" fill="#AFD2E9"/>
<path transform="translate(327,647)" d="m0 0 5 2 11 1 5-3 3 1-6 4-5 2-7-1-6-5z" fill="#76B3D8"/>
<path transform="translate(704,499)" d="m0 0 17 1v1l-12 1-2 1h-21v-1l6-1h11z" fill="#5496BD"/>
<path transform="translate(881,487)" d="m0 0h5l-2 2-7 3-12 1h-15v-1l12-1 4-1h9z" fill="#5698BF"/>
<path transform="translate(873,604)" d="m0 0h5v2h2l1 8-1 2-3-1-2-3v-6l-3-1z" fill="#AFD2E9"/>
<path transform="translate(683,406)" d="m0 0h30l-2 2-12 1-16-2z" fill="#DD8066"/>
<path transform="translate(627,1087)" d="m0 0 4 1 1 4-2 2-2 6-2 1-2-1 1-4 2-1v-3l-2-2z" fill="#AFD2E9"/>
<path transform="translate(892,812)" d="m0 0h2l1 7-1 9 1 5-5-3 2-1v-6l-4-1 3-2z" fill="#5092B9"/>
<path transform="translate(721,831)" d="m0 0m-2 1h2l-1 4h-3l-1 5-6 2-4-1z" fill="#3D241D"/>
<path transform="translate(488,1079)" d="m0 0h10l2 2v3l-13-1z" fill="#AFD2E9"/>
<path transform="translate(773,803)" d="m0 0 2 1-15 12-5 3 2-4 3-3h2v-2l7-5z" fill="#3E261E"/>
<path transform="translate(816,516)" d="m0 0h16v1h-5v2h-11l-9 1-1-2z" fill="#5FA1C7"/>
<path transform="translate(942,488)" d="m0 0 1 4 1 11v12h-2l-1-16v-8z" fill="#EA9785"/>
<path transform="translate(876,776)" d="m0 0 6 1v10l-5-4z" fill="#AFD2E9"/>
<path transform="translate(425,799)" d="m0 0 2 1v18l-3 1v-9z" fill="#5FA0C6"/>
<path transform="translate(370,365)" d="m0 0 3 4 2 8v9h-1l-2-7-2-6z" fill="#D9A69A"/>
<path transform="translate(780,830)" d="m0 0 1 2-3 6-9 12h-3l9-12z" fill="#3F2820"/>
<path transform="translate(480,1103)" d="m0 0h17l6 2-2 1h-10l-11-2z" fill="#5092B8"/>
<path transform="translate(732,832)" d="m0 0 2 1-8 7-7 5-2-1 7-8 5-2z" fill="#3C231C"/>
<path transform="translate(966,686)" d="m0 0h6l-4 2-8 7-4 2 2-5 6-5z" fill="#87BAD8"/>
<path transform="translate(680,657)" d="m0 0 3 1-4 2-2 4-6 7-3 1 2-4 9-10z" fill="#422D24"/>
<path transform="translate(619,499)" d="m0 0 16 1 2 1v2l-17-1-3 1v-2h2z" fill="#5799C0"/>
<path transform="translate(947,718)" d="m0 0 4 1v15l-3-4-1-3z" fill="#7CB6D9"/>
<path transform="translate(893,1037)" d="m0 0h1l-1 12-2 3v-4h-2v-5l3-3z" fill="#5092B8"/>
<path transform="translate(766,729)" d="m0 0m-1 1m-2 1h2l-1 4-3 1-1 3-7 1 3-3z" fill="#3C231C"/>
<path transform="translate(468,435)" d="m0 0 3 2v10l2 1-5-1z" fill="#5DA0C8"/>
<path transform="translate(473,1078)" d="m0 0 7 2v4l-5-1-4-2v-2z" fill="#AFD2E9"/>
<path transform="translate(675,940)" d="m0 0v3l-5 5-5 4-4 1 4-5z" fill="#3C231C"/>
<path transform="translate(862,437)" d="m0 0h1v5l-2 3h-11l1-2 7-1 3-2z" fill="#60A3CA"/>
<path transform="translate(652,811)" d="m0 0 1 2-5 5-7 2 5-5z" fill="#3C231C"/>
<path transform="translate(508,1104)" d="m0 0 5 1h3v2l4 1h-16z" fill="#5092B8"/>
<path transform="translate(707,911)" d="m0 0 2 1-8 9-3 2-3-1 10-9z" fill="#3D251E"/>
<path transform="translate(707,720)" d="m0 0m-1 1m-3 1h3l-1 3-11 7 2-4h2l2-5 3 1z" fill="#3D241D"/>
<path transform="translate(863,423)" d="m0 0 2 1-1 19h-3l1-1v-18z" fill="#589AC1"/>
<path transform="translate(744,1077)" d="m0 0 4 1-3 5-4 1 1-5z" fill="#AFD2E9"/>
<path transform="translate(584,732)" d="m0 0v3l-11 7-2-1 3-3h2v-2l4-2z" fill="#3C231C"/>
<path transform="translate(795,793)" d="m0 0h1l-1 9v3h-2l-1 4-1-2 3-13z" fill="#3D251D"/>
<path transform="translate(870,588)" d="m0 0 3 1-1 4-1 2-4-2 1-4z" fill="#AFD2E9"/>
<path transform="translate(696,1106)" d="m0 0 7 1-1 4-6-1z" fill="#589AC1"/>
<path transform="translate(527,681)" d="m0 0v3l-7 10-2 2 1-5 6-8z" fill="#3C241C"/>
<path transform="translate(496,252)" d="m0 0 3 1h-2v3l-5-1-1 2-3 1-1 2-2-1 4-4z" fill="#92C3E0"/>
<path transform="translate(777,724)" d="m0 0 3 1 1 3-5 3v-3l-3-1z" fill="#504236"/>
<path transform="translate(727,705)" d="m0 0 2 1-5 5-3 2-2-2 5-5z" fill="#4B3A30"/>
</svg>
